<?xml version="1.0" encoding="UTF-8"?>
<svg id="SVGDoc" width="14" height="12" xmlns="http://www.w3.org/2000/svg" version="1.1" xmlns:xlink="http://www.w3.org/1999/xlink" xmlns:avocode="https://avocode.com/" viewBox="0 0 14 12"><defs></defs><desc>Generated with Avocode.</desc><g><g><title>back</title><path d="M13.45883,11.99989c-0.19466,0 -0.36367,-0.14076 -0.39621,-0.33596c-0.2901,-1.69394 -1.93041,-4.6504 -6.09123,-4.82316v2.17342c0,0.1506 -0.08416,0.28857 -0.21806,0.35748c-0.13393,0.06888 -0.29511,0.05717 -0.41765,-0.03034l-6.02857,-4.30613c-0.10565,-0.07547 -0.16834,-0.19734 -0.16834,-0.32717c0,-0.12986 0.06269,-0.25169 0.16834,-0.32714l6.02859,-4.30611c0.12251,-0.08754 0.28372,-0.09925 0.41762,-0.03034c0.1339,0.0689 0.21806,0.20688 0.21806,0.35748v2.20617c2.57196,0.25655 6.88981,2.11304 6.88981,8.98974c0,0.20918 -0.16041,0.38342 -0.36887,0.40066c-0.01123,0.00091 -0.02241,0.00139 -0.0335,0.00139z" fill="#6a6a6a" fill-opacity="1"></path></g></g></svg>