<?xml version="1.0" encoding="utf-8"?>
<!-- Generator: Adobe Illustrator 26.3.1, SVG Export Plug-In . SVG Version: 6.00 Build 0)  -->
<svg height="10" version="1.1" id="Layer_1" xmlns="http://www.w3.org/2000/svg" xmlns:xlink="http://www.w3.org/1999/xlink" x="0px" y="0px"
	 viewBox="0 0 20 18.9" style="enable-background:new 0 0 20 18.9;" xml:space="preserve">
<style type="text/css">
	.st0{fill:#6A6A6A;}
	.st1{fill-rule:evenodd;clip-rule:evenodd;fill:#6A6A6A;}
</style>
<g>
	<path class="st0" d="M7.9,15.2h9.8c1.3,0,2.3-1,2.3-2.3V2.3C20,1,19,0,17.7,0H2.3C1,0,0,1,0,2.3v10.7c0,1.3,1,2.3,2.3,2.3h0.6
		c0.1,0,0.2,0,0.3,0.1c0.1,0.1,0.1,0.2,0.1,0.3l-0.1,3.2l1.5-1.2c0,0,0,0,0,0l3-2.3C7.7,15.3,7.8,15.2,7.9,15.2z M14.7,6.4
		c0.7,0,1.3,0.6,1.3,1.3c0,0.7-0.6,1.3-1.3,1.3c-0.7,0-1.3-0.6-1.3-1.3C13.4,7,13.9,6.4,14.7,6.4z M10,6.4c0.7,0,1.3,0.6,1.3,1.3
		c0,0.7-0.6,1.3-1.3,1.3c-0.7,0-1.3-0.6-1.3-1.3C8.7,7,9.3,6.4,10,6.4z M5.3,8.9C4.6,8.9,4,8.4,4,7.7C4,7,4.6,6.4,5.3,6.4
		C6,6.4,6.6,7,6.6,7.7C6.6,8.4,6,8.9,5.3,8.9z"/>
</g>
</svg>