<?xml version="1.0" encoding="utf-8"?>
<!-- Generator: Adobe Illustrator 27.7.0, SVG Export Plug-In . SVG Version: 6.00 Build 0)  -->
<svg version="1.1" id="Layer_1" xmlns="http://www.w3.org/2000/svg" xmlns:xlink="http://www.w3.org/1999/xlink" x="0px" y="0px"
	 viewBox="0 0 153.27 211.39" style="enable-background:new 0 0 153.27 211.39;" xml:space="preserve">
<style type="text/css">
	.st0{clip-path:url(#SVGID_00000166655778338372238110000009262267100440266649_);fill:#84CFFF;}
	.st1{clip-path:url(#SVGID_00000137134597973525434190000008925757548160233877_);fill:#84CFFF;}
	.st2{fill:#FFFFFF;}
</style>
<g>
	<g>
		<g id="_x3C_Mirror_Repeat_x3E__00000034776416350414532200000013625859925028630455_">
			<g>
				<defs>
					<rect id="SVGID_1_" x="9.19" y="4.17" width="67.45" height="203.05"/>
				</defs>
				<clipPath id="SVGID_00000080910466001858008410000011381357500339052722_">
					<use xlink:href="#SVGID_1_"  style="overflow:visible;"/>
				</clipPath>
				<path style="clip-path:url(#SVGID_00000080910466001858008410000011381357500339052722_);fill:#84CFFF;" d="M76.64,207.22V4.17
					L9.28,13.36c-0.05,25.23,0,50.48-0.02,75.72c0.34,23.13-1.88,47.36,5.02,68.81C14.29,157.88,19.77,184.76,76.64,207.22z"/>
			</g>
		</g>
		<g id="_x3C_Mirror_Repeat_x3E__00000036221754607975891380000002114314812141114502_">
			<g>
				<defs>
					<rect id="SVGID_00000021820814632560544820000007282058509744993409_" x="76.64" y="4.17" width="67.45" height="203.05"/>
				</defs>
				<clipPath id="SVGID_00000142864065340449257170000001534190972147678117_">
					<use xlink:href="#SVGID_00000021820814632560544820000007282058509744993409_"  style="overflow:visible;"/>
				</clipPath>
				<path style="clip-path:url(#SVGID_00000142864065340449257170000001534190972147678117_);fill:#84CFFF;" d="M76.64,207.22V4.17
					l67.36,9.18c0.05,25.23,0,50.48,0.02,75.72c-0.34,23.13,1.88,47.36-5.02,68.81C138.99,157.88,133.51,184.76,76.64,207.22z"/>
			</g>
		</g>
	</g>
	<g>
		<path class="st2" d="M40.41,36.46c-0.05,0.07-0.1,0.13-0.15,0.2c0.01-0.01,0.02-0.03,0.03-0.04
			C40.33,36.57,40.37,36.52,40.41,36.46z"/>
		<path class="st2" d="M57.97,125.11c-3.95-1.55-7.77-3.47-11.25-5.9c-4.35-3.02-8.1-6.63-11.32-10.82
			c-0.17-0.22-0.33-0.46-0.5-0.68v51.08l-10.05,1.36v8.96H69.1v-8.96l-11.13-1.36V125.11z"/>
		<path class="st2" d="M45.7,22.36H24.85v9.5l9.38,1.75C37.41,29.29,41.32,25.51,45.7,22.36z"/>
		<path class="st2" d="M40.26,36.66C40.26,36.66,40.25,36.67,40.26,36.66c-0.12,0.15-0.33,0.43-0.19,0.26
			c0.02-0.03,0.05-0.07,0.07-0.1C40.18,36.76,40.22,36.71,40.26,36.66z"/>
		<path class="st2" d="M118.38,158.78V79.06l6.91-1.07v-9.91H82.93v9.91l7.98,0.86l4.25,0.79v28.44c-1.34,1.19-3.22,2.18-5.65,2.96
			c-2.67,0.86-5.63,1.29-8.89,1.29c-7.97,0-13.83-3.91-17.58-11.74c-3.76-7.83-5.63-18.44-5.63-31.83c0-13.48,2.22-23.78,6.65-30.88
			c4.43-7.1,10.68-10.66,18.73-10.66c3.62,0,6.49,0.34,8.62,1.02c2.13,0.68,3.6,1.47,4.41,2.37l3.8,17.92h16.29l1.63-26.2
			c-4.26-0.99-9.46-1.94-15.61-2.85c-6.16-0.9-12.35-1.36-18.6-1.36c-5.67,0-10.94,0.55-15.8,1.65c-2.87,0.71-5.69,1.62-8.43,2.74
			c-2.35,1.01-4.64,2.18-6.83,3.51c-1,0.61-1.97,1.25-2.93,1.93c-0.46,0.32-0.9,0.66-1.35,1c-0.07,0.06-0.14,0.11-0.19,0.15
			c-0.23,0.18-0.46,0.37-0.68,0.55c-1.85,1.53-3.58,3.19-5.17,4.98c-0.39,0.44-0.78,0.89-1.15,1.35c-0.17,0.21-0.35,0.43-0.52,0.64
			c-0.12,0.15-0.19,0.25-0.23,0.3c-0.69,0.93-1.35,1.88-1.97,2.86c-1.16,1.84-2.18,3.76-3.07,5.75v0.43
			c-2.99,7.06-4.5,15.29-4.5,24.7c0,8.65,1.46,16.49,4.36,23.5v0.02c0.01,0.04,0.03,0.07,0.04,0.11c1.14,2.65,2.48,5.22,4.06,7.64
			c0.63,0.97,1.31,1.91,2,2.84c0.1,0.13,0.23,0.3,0.3,0.39c0.19,0.23,0.37,0.46,0.56,0.68c0.38,0.45,0.76,0.89,1.15,1.32
			c1.6,1.76,3.33,3.39,5.19,4.88c0.1,0.08,0.21,0.16,0.31,0.25c0.19,0.14,0.38,0.28,0.57,0.42c0.41,0.3,0.83,0.6,1.25,0.89
			c0.95,0.65,1.93,1.27,2.93,1.86c1.85,1.08,3.77,2.04,5.74,2.89c1.13,0.47,2.28,0.9,3.43,1.3c4.4,1.51,8.95,2.51,13.55,3.15
			c2.69,0.35,5.39,0.57,8.09,0.7h11.09v35.16l-10.18,1.49v8.96h43.44v-8.96L118.38,158.78z"/>
		<path class="st2" d="M48.27,28.74C48.3,28.71,48.3,28.72,48.27,28.74L48.27,28.74z"/>
	</g>
</g>
</svg>
