<?xml version="1.0" encoding="utf-8"?>
<!-- Generator: Adobe Illustrator 27.7.0, SVG Export Plug-In . SVG Version: 6.00 Build 0)  -->
<svg version="1.1" id="Layer_1" xmlns="http://www.w3.org/2000/svg" xmlns:xlink="http://www.w3.org/1999/xlink" x="0px" y="0px"
	 viewBox="0 0 737.59 227.08" style="enable-background:new 0 0 737.59 227.08;" xml:space="preserve">
<style type="text/css">
	.st0{fill:#00001E;}
	.st1{clip-path:url(#SVGID_00000173858799367412846800000004298910962123681969_);fill:#84CFFF;}
	.st2{clip-path:url(#SVGID_00000176005455963279513120000001339970223069850788_);fill:#84CFFF;}
	.st3{fill:#FFFFFF;}
</style>
<g>
	<g>
		<path class="st0" d="M194.84,24.73l-8.42-1.52v-8.18h37.88v8.18l-9.59,1.52v27.94h32.03V24.84l-8.77-1.64v-8.18h37.41v8.18
			l-8.65,1.52V93l8.65,1.17v7.72h-37.41v-7.72l8.77-1.29V62.61h-32.03V93l9.59,1.17v7.72h-38.11v-7.72l8.65-1.17V24.73z"/>
		<path class="st0" d="M291.18,94.11c-5.14-6.04-7.72-14.28-7.72-24.73c0-7.09,1.32-13.21,3.98-18.36
			c2.65-5.14,6.37-9.06,11.17-11.75c4.79-2.69,10.42-4.03,16.89-4.03c8.18,0,14.44,2.07,18.76,6.2c4.33,4.13,6.57,9.98,6.72,17.54
			c0,4.99-0.35,9-1.05,12.04h-36.59c0.39,6.62,2.01,11.67,4.85,15.14c2.84,3.47,6.84,5.2,11.98,5.2c2.88,0,5.9-0.49,9.06-1.46
			c3.16-0.97,5.71-2.08,7.66-3.33l3.27,7.13c-2.03,2.26-5.48,4.4-10.35,6.43c-4.87,2.03-9.84,3.04-14.91,3.04
			C304.23,103.17,296.32,100.15,291.18,94.11z M322.39,63.31l0.12-4.91c0-4.91-0.66-8.65-1.99-11.22c-1.33-2.57-3.59-3.86-6.78-3.86
			c-3.27,0-5.81,1.42-7.6,4.27c-1.79,2.85-2.77,8.09-2.92,15.72H322.39z"/>
		<path class="st0" d="M358.34,67.4c6.97-3.66,16.15-5.53,27.53-5.61v-2.34c0-2.81-0.31-5.03-0.94-6.66
			c-0.62-1.64-1.75-2.86-3.39-3.68s-4.05-1.23-7.25-1.23c-3.82,0-7.23,0.45-10.23,1.34c-3,0.9-6.14,2.09-9.41,3.57l-3.98-8.42
			c1.25-1.01,3.27-2.24,6.08-3.68c2.81-1.44,6.18-2.69,10.11-3.74c3.93-1.05,8.05-1.58,12.33-1.58c6.24,0,11.12,0.82,14.67,2.46
			c3.55,1.64,6.08,4.17,7.6,7.6c1.52,3.43,2.28,8.11,2.28,14.03v34.72h6.08v7.37c-1.79,0.39-4.29,0.78-7.48,1.17
			c-3.2,0.39-5.92,0.58-8.18,0.58c-2.96,0-4.93-0.43-5.9-1.29c-0.97-0.86-1.46-2.57-1.46-5.14v-2.69c-1.95,2.34-4.56,4.42-7.83,6.25
			c-3.27,1.83-7.05,2.75-11.34,2.75c-3.66,0-7-0.8-10-2.4c-3-1.6-5.38-3.9-7.13-6.9c-1.75-3-2.63-6.57-2.63-10.7
			C347.88,76.32,351.36,71.06,358.34,67.4z M381.43,91.19c1.71-0.82,3.2-1.81,4.44-2.98V69.62c-6.08,0-10.58,1.09-13.5,3.27
			c-2.92,2.18-4.38,4.99-4.38,8.42c0,3.51,0.78,6.24,2.34,8.18c1.56,1.95,3.7,2.92,6.43,2.92
			C378.16,92.42,379.72,92.01,381.43,91.19z"/>
		<path class="st0" d="M422.23,17.48l-8.18-1.52V8.83l23.38-2.81h0.35l3.39,2.46v84.64l7.6,1.05v7.72h-34.02v-7.72l7.48-1.05V17.48z
			"/>
		<path class="st0" d="M464.73,99.37c-2.46-2.38-3.68-6.06-3.68-11.05V46.71h-7.13v-6.78l2.34-0.94c1.87-0.62,3.51-1.29,4.91-1.99
			c1.56-1.48,2.81-3.43,3.74-5.85c1.17-2.81,2.46-6.74,3.86-11.81h10.87l0.7,17.54h16.72v9.82h-16.48v30.98c0,4.29,0.12,7.29,0.35,9
			c0.23,1.71,0.68,2.83,1.34,3.33c0.66,0.51,1.89,0.76,3.68,0.76c3.66,0,7.13-0.62,10.4-1.87l2.46,7.37
			c-2.18,1.79-5.42,3.35-9.7,4.68c-4.29,1.32-8.61,1.99-12.98,1.99C470.98,102.94,467.18,101.75,464.73,99.37z"/>
		<path class="st0" d="M509.33,17.48l-8.3-1.52V8.83l23.5-2.81h0.35l3.39,2.46l0.12,25.37l-0.93,10.41
			c2.42-2.26,5.61-4.27,9.59-6.02c3.98-1.75,8.34-2.63,13.09-2.63c4.91,0,8.73,0.9,11.46,2.69c2.73,1.79,4.64,4.52,5.73,8.18
			c1.09,3.66,1.64,8.53,1.64,14.61v32.03l7.13,1.05v7.72h-32.5v-7.72l6.2-1.05V61.2c0-5.45-0.58-9.25-1.75-11.4
			c-1.17-2.14-3.55-3.21-7.13-3.21c-2.18,0-4.37,0.49-6.55,1.46c-2.18,0.98-4.02,2.16-5.5,3.57v41.5l6.43,1.05v7.72h-32.03v-7.72
			l6.08-1.05V17.48z"/>
	</g>
	<g>
		<path class="st0" d="M204.2,205.56c-6.24-3.82-10.95-9.04-14.15-15.67c-3.2-6.62-4.79-14.15-4.79-22.56
			c0-9.66,1.83-17.89,5.49-24.67c3.66-6.78,8.9-11.91,15.72-15.37c6.82-3.47,14.91-5.2,24.26-5.2c5.38,0,10.71,0.39,16.02,1.17
			c5.3,0.78,9.78,1.6,13.44,2.46l-1.4,22.56h-14.03l-3.27-15.43c-0.7-0.78-1.97-1.46-3.8-2.05c-1.83-0.58-4.31-0.88-7.42-0.88
			c-6.94,0-12.32,3.06-16.13,9.18c-3.82,6.12-5.73,14.99-5.73,26.6c0,11.54,1.62,20.67,4.85,27.42c3.23,6.74,8.28,10.11,15.14,10.11
			c2.81,0,5.36-0.37,7.66-1.11c2.3-0.74,4.03-1.7,5.2-2.86v-24.43l-10.87-1.17v-8.53h36.48v8.53l-5.85,0.94v30.75
			c-1.33,0.08-4.4,0.7-9.24,1.87c-4.75,1.25-9.04,2.24-12.86,2.98c-3.82,0.74-7.91,1.11-12.28,1.11
			C217.91,211.29,210.43,209.38,204.2,205.56z"/>
		<path class="st0" d="M320.64,209.36c-1.25-1.21-1.87-2.98-1.87-5.32v-2.57c-1.87,2.57-4.68,4.85-8.42,6.84s-7.52,2.98-11.34,2.98
			c-7.64,0-13.08-1.89-16.31-5.67c-3.24-3.78-4.85-10.11-4.85-19v-32.5l-5.5-1.52v-7.48l21.98-1.52h0.12l2.57,1.64v41.85
			c0,5.07,0.62,8.59,1.87,10.58c1.25,1.99,3.47,2.98,6.66,2.98c4.36,0,8.03-1.48,10.99-4.44v-42.09l-7.25-1.75v-7.25l23.15-1.52
			h0.35l2.81,1.64v56.7h6.2v7.48c-2.65,0.55-5.09,0.97-7.31,1.29c-2.22,0.31-4.81,0.47-7.77,0.47
			C323.91,211.17,321.89,210.57,320.64,209.36z"/>
		<path class="st0" d="M358.11,175.52c6.97-3.66,16.15-5.53,27.53-5.61v-2.34c0-2.81-0.31-5.03-0.94-6.66
			c-0.62-1.64-1.75-2.86-3.39-3.68s-4.05-1.23-7.25-1.23c-3.82,0-7.23,0.45-10.23,1.34c-3,0.9-6.14,2.09-9.41,3.57l-3.98-8.42
			c1.25-1.01,3.27-2.24,6.08-3.68c2.81-1.44,6.18-2.69,10.11-3.74c3.93-1.05,8.05-1.58,12.33-1.58c6.24,0,11.12,0.82,14.67,2.46
			c3.55,1.64,6.08,4.17,7.6,7.6c1.52,3.43,2.28,8.11,2.28,14.03v34.72h6.08v7.37c-1.79,0.39-4.29,0.78-7.48,1.17
			c-3.2,0.39-5.92,0.58-8.18,0.58c-2.96,0-4.93-0.43-5.9-1.29c-0.97-0.86-1.46-2.57-1.46-5.14v-2.69c-1.95,2.34-4.56,4.42-7.83,6.25
			c-3.27,1.83-7.05,2.75-11.34,2.75c-3.66,0-7-0.8-10-2.4c-3-1.6-5.38-3.9-7.13-6.9c-1.75-3-2.63-6.57-2.63-10.7
			C347.65,184.44,351.13,179.18,358.11,175.52z M381.2,199.31c1.71-0.82,3.2-1.81,4.44-2.98v-18.59c-6.08,0-10.58,1.09-13.5,3.27
			c-2.92,2.18-4.38,4.99-4.38,8.42c0,3.51,0.78,6.24,2.34,8.18c1.56,1.95,3.7,2.92,6.43,2.92
			C377.93,200.54,379.48,200.13,381.2,199.31z"/>
		<path class="st0" d="M416.04,202.29l7.13-1.05v-43.96l-6.9-2.1v-9.12l19.41-2.57h0.35l3.27,2.46v2.81l-0.35,9.7h0.35
			c0.54-1.79,1.79-3.88,3.74-6.25c1.95-2.38,4.42-4.44,7.42-6.2c3-1.75,6.25-2.63,9.76-2.63c2.03,0,3.58,0.27,4.68,0.82v20.34
			c-1.25-0.94-2.59-1.67-4.03-2.22c-1.44-0.54-3.29-0.82-5.55-0.82c-2.81,0-5.34,0.37-7.6,1.11c-2.26,0.74-4.05,1.58-5.38,2.51
			v36.12l12.86,1.17v7.6h-39.17V202.29z"/>
		<path class="st0" d="M478,203.22c-4.68-5.38-7.01-13.44-7.01-24.2c0-6.47,1.34-12.41,4.03-17.83c2.69-5.42,6.66-9.74,11.92-12.98
			c5.26-3.23,11.63-4.85,19.12-4.85c2.26,0,4.6,0.27,7.01,0.82v-18.59l-11.22-1.64v-7.48l25.84-2.34h0.58l3.51,2.81v85.23h6.08v7.48
			c-6,1.17-10.99,1.75-14.96,1.75c-2.73,0-4.7-0.45-5.9-1.34c-1.21-0.9-1.81-2.63-1.81-5.2v-2.92c-1.87,2.73-4.56,4.97-8.07,6.72
			c-3.51,1.75-7.13,2.63-10.87,2.63C488.76,211.29,482.68,208.6,478,203.22z M509.04,199.42c1.67-0.9,3.02-1.97,4.03-3.22v-42.32
			c-0.55-0.7-1.54-1.29-2.98-1.75c-1.44-0.47-2.98-0.7-4.62-0.7c-4.37,0-7.83,2.09-10.41,6.25c-2.57,4.17-3.86,10.97-3.86,20.4
			c0,7.72,1.09,13.43,3.27,17.13c2.18,3.7,5.1,5.55,8.77,5.55C505.44,200.77,507.36,200.32,509.04,199.42z"/>
		<path class="st0" d="M552.71,157.28l-7.83-2.22v-8.77l23.38-2.81h0.23l3.62,2.46v55.3l7.01,1.05V210h-33.67v-7.72l7.25-1.05
			V157.28z M552.47,132.26c-1.87-1.79-2.81-4.09-2.81-6.9c0-3.27,1.03-5.96,3.1-8.07c2.06-2.1,4.85-3.16,8.36-3.16
			c3.51,0,6.2,0.9,8.07,2.69c1.87,1.79,2.81,4.09,2.81,6.9c0,3.35-1.05,6.06-3.16,8.12c-2.1,2.07-5.07,3.1-8.89,3.1h-0.12
			C556.8,134.95,554.34,134.05,552.47,132.26z"/>
		<path class="st0" d="M596.02,175.52c6.97-3.66,16.15-5.53,27.53-5.61v-2.34c0-2.81-0.31-5.03-0.94-6.66
			c-0.62-1.64-1.75-2.86-3.39-3.68s-4.05-1.23-7.25-1.23c-3.82,0-7.23,0.45-10.23,1.34c-3,0.9-6.14,2.09-9.41,3.57l-3.98-8.42
			c1.25-1.01,3.27-2.24,6.08-3.68c2.81-1.44,6.18-2.69,10.11-3.74c3.93-1.05,8.05-1.58,12.33-1.58c6.24,0,11.12,0.82,14.67,2.46
			c3.55,1.64,6.08,4.17,7.6,7.6c1.52,3.43,2.28,8.11,2.28,14.03v34.72h6.08v7.37c-1.79,0.39-4.29,0.78-7.48,1.17
			c-3.2,0.39-5.92,0.58-8.18,0.58c-2.96,0-4.93-0.43-5.9-1.29c-0.97-0.86-1.46-2.57-1.46-5.14v-2.69c-1.95,2.34-4.56,4.42-7.83,6.25
			c-3.27,1.83-7.05,2.75-11.34,2.75c-3.66,0-7-0.8-10-2.4c-3-1.6-5.38-3.9-7.13-6.9c-1.75-3-2.63-6.57-2.63-10.7
			C585.56,184.44,589.04,179.18,596.02,175.52z M619.11,199.31c1.71-0.82,3.2-1.81,4.44-2.98v-18.59c-6.08,0-10.58,1.09-13.5,3.27
			c-2.92,2.18-4.38,4.99-4.38,8.42c0,3.51,0.78,6.24,2.34,8.18c1.56,1.95,3.7,2.92,6.43,2.92
			C615.84,200.54,617.4,200.13,619.11,199.31z"/>
		<path class="st0" d="M660.38,157.28l-6.9-2.1v-9.12l21.28-2.57h0.35l3.04,2.46v4.33l-0.12,2.69c2.73-2.57,6.2-4.75,10.4-6.55
			c4.21-1.79,8.61-2.69,13.21-2.69c4.68,0,8.36,0.84,11.05,2.51c2.69,1.68,4.64,4.35,5.85,8.01c1.21,3.66,1.81,8.65,1.81,14.96
			v32.03l6.55,0.94V210h-31.8v-7.72l5.73-1.05v-31.92c0-3.74-0.25-6.64-0.76-8.71c-0.51-2.06-1.38-3.57-2.63-4.5
			c-1.25-0.93-3.04-1.4-5.38-1.4c-3.59,0-7.64,1.68-12.16,5.03v41.5l6.43,1.05V210h-32.38v-7.72l6.43-1.05V157.28z"/>
	</g>
	<g>
		<g id="_x3C_Mirror_Repeat_x3E__00000036222662524550181160000003167030619004702111_">
			<g>
				<defs>
					<rect id="SVGID_1_" x="7.88" y="8.34" width="67.45" height="203.05"/>
				</defs>
				<clipPath id="SVGID_00000044149342557304962880000013183894398806426023_">
					<use xlink:href="#SVGID_1_"  style="overflow:visible;"/>
				</clipPath>
				<path style="clip-path:url(#SVGID_00000044149342557304962880000013183894398806426023_);fill:#84CFFF;" d="M75.33,211.39V8.34
					L7.98,17.52C7.93,42.76,7.98,68,7.96,93.24c0.34,23.13-1.88,47.36,5.02,68.81C12.98,162.05,18.46,188.93,75.33,211.39z"/>
			</g>
		</g>
		<g id="_x3C_Mirror_Repeat_x3E__00000031895458084791579080000002339145705560421509_">
			<g>
				<defs>
					<rect id="SVGID_00000056418142896322886050000004549990990723578541_" x="75.33" y="8.34" width="67.45" height="203.05"/>
				</defs>
				<clipPath id="SVGID_00000054247292864539106470000014832987274433204877_">
					<use xlink:href="#SVGID_00000056418142896322886050000004549990990723578541_"  style="overflow:visible;"/>
				</clipPath>
				<path style="clip-path:url(#SVGID_00000054247292864539106470000014832987274433204877_);fill:#84CFFF;" d="M75.33,211.39V8.34
					l67.36,9.18c0.05,25.23,0,50.48,0.02,75.72c-0.34,23.13,1.88,47.36-5.02,68.81C137.68,162.05,132.21,188.93,75.33,211.39z"/>
			</g>
		</g>
	</g>
	<g>
		<path class="st3" d="M39.11,40.63c-0.05,0.07-0.1,0.13-0.15,0.2c0.01-0.01,0.02-0.03,0.03-0.04
			C39.02,40.74,39.06,40.69,39.11,40.63z"/>
		<path class="st3" d="M56.67,129.28c-3.95-1.55-7.77-3.47-11.25-5.9c-4.35-3.02-8.1-6.63-11.32-10.82
			c-0.17-0.22-0.33-0.46-0.5-0.68v51.08l-10.05,1.36v8.96H67.8v-8.96l-11.13-1.36V129.28z"/>
		<path class="st3" d="M44.4,26.53H23.54v9.5l9.38,1.75C36.11,33.46,40.02,29.67,44.4,26.53z"/>
		<path class="st3" d="M38.95,40.83C38.95,40.83,38.95,40.83,38.95,40.83c-0.12,0.15-0.33,0.43-0.19,0.26
			c0.02-0.03,0.05-0.07,0.07-0.1C38.88,40.93,38.92,40.88,38.95,40.83z"/>
		<path class="st3" d="M117.08,162.95V83.22l6.91-1.07v-9.91H81.63v9.91l7.98,0.86l4.25,0.79v28.44c-1.34,1.19-3.22,2.18-5.65,2.96
			c-2.67,0.86-5.63,1.29-8.89,1.29c-7.97,0-13.83-3.91-17.58-11.74c-3.76-7.83-5.63-18.44-5.63-31.83c0-13.48,2.22-23.78,6.65-30.88
			c4.43-7.1,10.68-10.66,18.73-10.66c3.62,0,6.49,0.34,8.62,1.02c2.13,0.68,3.6,1.47,4.41,2.37l3.8,17.92h16.29l1.63-26.2
			c-4.26-0.99-9.46-1.94-15.61-2.85c-6.16-0.9-12.35-1.36-18.6-1.36c-5.67,0-10.94,0.55-15.8,1.65c-2.87,0.71-5.69,1.62-8.43,2.74
			c-2.35,1.01-4.64,2.18-6.83,3.51c-1,0.61-1.97,1.25-2.93,1.93c-0.46,0.32-0.9,0.66-1.35,1c-0.07,0.06-0.14,0.11-0.19,0.15
			c-0.23,0.18-0.46,0.37-0.68,0.55c-1.85,1.53-3.58,3.19-5.17,4.98c-0.39,0.44-0.78,0.89-1.15,1.35c-0.17,0.21-0.35,0.43-0.52,0.64
			c-0.12,0.15-0.19,0.25-0.23,0.3c-0.69,0.93-1.35,1.88-1.97,2.86c-1.16,1.84-2.18,3.76-3.07,5.75v0.43
			c-2.99,7.06-4.5,15.29-4.5,24.7c0,8.65,1.46,16.49,4.36,23.5v0.02c0.01,0.04,0.03,0.07,0.04,0.11c1.14,2.65,2.48,5.22,4.06,7.64
			c0.63,0.97,1.31,1.91,2,2.84c0.1,0.13,0.23,0.3,0.3,0.39c0.19,0.23,0.37,0.46,0.56,0.68c0.38,0.45,0.76,0.89,1.15,1.32
			c1.6,1.76,3.33,3.39,5.19,4.88c0.1,0.08,0.21,0.16,0.31,0.25c0.19,0.14,0.38,0.28,0.57,0.42c0.41,0.3,0.83,0.6,1.25,0.89
			c0.95,0.65,1.93,1.27,2.93,1.86c1.85,1.08,3.77,2.04,5.74,2.89c1.13,0.47,2.28,0.9,3.43,1.3c4.4,1.51,8.95,2.51,13.55,3.15
			c2.69,0.35,5.39,0.57,8.09,0.7h11.09v35.16l-10.18,1.49v8.96h43.44v-8.96L117.08,162.95z"/>
		<path class="st3" d="M46.97,32.9C47,32.88,47,32.88,46.97,32.9L46.97,32.9z"/>
	</g>
</g>
</svg>
