<?xml version="1.0" encoding="UTF-8"?>
<svg id="SVGDoc" width="20" height="21" xmlns="http://www.w3.org/2000/svg" version="1.1" xmlns:xlink="http://www.w3.org/1999/xlink" xmlns:avocode="https://avocode.com/" viewBox="0 0 20 21"><defs></defs><desc>Generated with Avocode.</desc><g><g><title>Icon awesome-linkedin-in</title><path d="M15.85804,20.24324v-6.5c0,-1.54911 -0.03125,-3.53572 -2.1558,-3.53572c-2.1558,0 -2.48616,1.68304 -2.48616,3.42411v6.61161h-4.14196v-13.35268h3.97679v1.82143h0.05804c0.55357,-1.04911 1.9058,-2.15625 3.92321,-2.15625c4.19643,0 4.96786,2.76339 4.96786,6.35268v7.33482zM2.40134,5.06913c-1.32589,0 -2.40134,-1.09821 -2.40134,-2.42411c0,-1.32622 1.07512,-2.40134 2.40134,-2.40134c1.32622,0 2.40134,1.07512 2.40134,2.40134c0,1.32589 -1.07589,2.42411 -2.40134,2.42411zM4.47679,20.24324h-4.14643v-13.35268h4.14643z" fill="#6a6a6a" fill-opacity="1"></path></g></g></svg>