<?xml version="1.0" encoding="UTF-8"?>
<svg id="SVGDoc" width="16" height="21" xmlns="http://www.w3.org/2000/svg" version="1.1" xmlns:xlink="http://www.w3.org/1999/xlink" xmlns:avocode="https://avocode.com/" viewBox="0 0 16 21"><defs></defs><desc>Generated with Avocode.</desc><g><g><title>Icon awesome-pinterest-p</title><path d="M8.17459,0.24371c-4.11134,0 -8.17459,2.74089 -8.17459,7.17681c0,2.82103 1.58683,4.42389 2.54855,4.42389c0.39671,0 0.62512,-1.10597 0.62512,-1.41853c0,-0.37266 -0.94969,-1.16608 -0.94969,-2.71685c0,-3.22175 2.45238,-5.50583 5.62604,-5.50583c2.72887,0 4.74847,1.55077 4.74847,4.39985c0,2.1278 -0.85352,6.11892 -3.61846,6.11892c-0.99778,0 -1.8513,-0.72129 -1.8513,-1.75513c0,-1.5147 1.05789,-2.98132 1.05789,-4.54411c0,-2.65273 -3.76271,-2.17188 -3.76271,1.03384c0,0.6732 0.08415,1.41853 0.38469,2.03163c-0.55299,2.38024 -1.683,5.92657 -1.683,8.37895c0,0.75735 0.10819,1.50268 0.18032,2.26003c0.13624,0.15228 0.06812,0.13624 0.27649,0.06011c2.0196,-2.76494 1.94748,-3.3059 2.86111,-6.92436c0.49288,0.93767 1.76715,1.44257 2.77696,1.44257c4.25559,0 6.167,-4.1474 6.167,-7.88607c0,-3.9791 -3.43814,-6.57574 -7.21287,-6.57574z" fill="#6a6a6a" fill-opacity="1"></path></g></g></svg>