<?xml version="1.0" encoding="utf-8"?>
<!-- Generator: Adobe Illustrator 26.3.1, SVG Export Plug-In . SVG Version: 6.00 Build 0)  -->
<svg height="11" version="1.1" id="Layer_1" xmlns="http://www.w3.org/2000/svg" xmlns:xlink="http://www.w3.org/1999/xlink" x="0px" y="0px"
	 viewBox="0 0 13 18.6" style="enable-background:new 0 0 13 18.6;" xml:space="preserve">
<style type="text/css">
	.st0{fill:#6A6A6A;}
	.st1{fill-rule:evenodd;clip-rule:evenodd;fill:#6A6A6A;}
</style>
<g>
	<path class="st0" d="M9.3,5.7H3.7c0.4,0.5,0.9,1,1.6,1.4l0.1,0.1c0.5,0.3,0.9,0.7,1.1,1.2c0.2-0.5,0.6-0.9,1.1-1.2l0.1-0.1
		C8.3,6.7,8.9,6.2,9.3,5.7z"/>
	<path class="st0" d="M6.5,10.3c-0.2,0.5-0.6,0.9-1.1,1.2l-0.1,0.1c-1.5,0.9-2.4,2.2-2.4,3.7v0.9h7.1v-0.9c0-1.5-0.9-2.9-2.4-3.7
		l-0.1-0.1C7.1,11.2,6.7,10.8,6.5,10.3z"/>
	<path class="st0" d="M8.5,8.8L8.5,8.8c2.2-1.2,3.4-3.2,3.4-5.4V1.5h0.3c0.4,0,0.8-0.3,0.8-0.8v0C13,0.3,12.7,0,12.2,0H0.8
		C0.3,0,0,0.3,0,0.8v0c0,0.4,0.3,0.8,0.8,0.8h0.3v1.8c0,2.1,1.2,4.1,3.3,5.3l0.1,0.1C5,9,5,9.6,4.5,9.9L4.4,9.9
		c-2.1,1.2-3.3,3.2-3.3,5.3v1.9H0.8c-0.4,0-0.8,0.3-0.8,0.8v0c0,0.4,0.3,0.8,0.8,0.8h11.5c0.4,0,0.8-0.3,0.8-0.8v0
		c0-0.4-0.3-0.8-0.8-0.8h-0.3v-1.9c0-2.1-1.2-4.1-3.3-5.3L8.5,9.9C8,9.6,8,9,8.5,8.8z M8,10.7L8,10.7c1.9,1.1,3,2.8,3,4.6v1.9H2
		v-1.9c0-1.8,1.1-3.5,2.9-4.5L5,10.7c0.5-0.3,0.8-0.8,0.8-1.4c0-0.6-0.3-1.1-0.8-1.4L4.9,7.9C3.1,6.9,2,5.2,2,3.4V1.5h9v1.8
		c0,1.8-1.1,3.5-2.9,4.5L8,7.9C7.5,8.2,7.2,8.7,7.2,9.3C7.2,9.9,7.5,10.4,8,10.7z"/>
</g>
</svg>
