<?xml version="1.0" encoding="UTF-8"?>
<svg id="SVGDoc" width="14" height="14" xmlns="http://www.w3.org/2000/svg" version="1.1" xmlns:xlink="http://www.w3.org/1999/xlink" xmlns:avocode="https://avocode.com/" viewBox="0 0 14 14"><defs></defs><desc>Generated with Avocode.</desc><g><g><title>search (6)</title><g><title>search_1_</title><g><title>Path 16</title><path d="M12.24961,6.12501c0,2.41626 -1.95875,4.375 -4.375,4.375c-2.41626,0 -4.375,-1.95874 -4.375,-4.375c0,-2.41626 1.95874,-4.375 4.375,-4.375c2.41622,0 4.375,1.95874 4.375,4.375zM13.99962,6.12502c0,-3.38276 -2.74225,-6.12501 -6.12501,-6.12501c-3.38278,0 -6.12502,2.74221 -6.12502,6.12498c0,3.38276 2.74228,6.12501 6.12502,6.12501c3.38274,0 6.12501,-2.74221 6.12501,-6.12498z" fill="#000000" fill-opacity="1"></path></g><g><title>Path 17</title><path d="M0.87458,13.99994c-0.23259,0.00143 -0.45613,-0.08987 -0.62125,-0.25372c-0.34312,-0.34027 -0.34538,-0.89432 -0.00507,-1.23746c0.00169,-0.00168 0.00338,-0.00336 0.00507,-0.00507l3.29,-3.28989c0.35518,-0.34311 0.92127,-0.3334 1.26439,0.02179c0.34312,0.35516 0.33332,0.92126 -0.02187,1.26437l-3.29003,3.24625c-0.16512,0.16385 -0.38866,0.25516 -0.62125,0.25372z" fill="#000000" fill-opacity="1"></path></g></g></g></g></svg>