<?xml version="1.0" encoding="UTF-8"?>
<svg id="SVGDoc" width="20" height="17" xmlns="http://www.w3.org/2000/svg" version="1.1" xmlns:xlink="http://www.w3.org/1999/xlink" xmlns:avocode="https://avocode.com/" viewBox="0 0 20 17"><defs></defs><desc>Generated with Avocode.</desc><g><g><title>Icon awesome-twitter</title><path d="M17.94421,4.04825c0.0127,0.17766 0.0127,0.35535 0.0127,0.53301c0,5.41877 -4.12435,11.66247 -11.66247,11.66247c-2.32235,0 -4.47971,-0.67262 -6.29444,-1.84009c0.32996,0.03805 0.64719,0.05074 0.98985,0.05074c1.91622,0 3.68021,-0.64719 5.08885,-1.75126c-1.80204,-0.03809 -3.3122,-1.21829 -3.83252,-2.84267c0.25383,0.03805 0.50762,0.06344 0.77414,0.06344c0.36801,0 0.73606,-0.05078 1.07868,-0.13957c-1.87817,-0.38074 -3.28685,-2.03048 -3.28685,-4.02287v-0.05074c0.54567,0.30457 1.18024,0.49492 1.85278,0.52028c-1.10407,-0.73606 -1.82739,-1.99239 -1.82739,-3.41373c0,-0.76141 0.20301,-1.45938 0.55836,-2.06852c2.01778,2.48731 5.0508,4.11166 8.45179,4.28935c-0.06344,-0.30457 -0.10152,-0.6218 -0.10152,-0.93906c0,-2.25892 1.82743,-4.099 4.099,-4.099c1.1802,0 2.24618,0.49492 2.99493,1.29442c0.92637,-0.17766 1.8147,-0.52031 2.60154,-0.98985c-0.30461,0.9518 -0.9518,1.7513 -1.80204,2.25888c0.82489,-0.08879 1.62438,-0.31727 2.3604,-0.63449c-0.55828,0.81215 -1.25629,1.53548 -2.05579,2.11927z" fill="#6a6a6a" fill-opacity="1"></path></g></g></svg>