<?xml version="1.0" encoding="utf-8"?>
<!-- Generator: Adobe Illustrator 26.3.1, SVG Export Plug-In . SVG Version: 6.00 Build 0)  -->
<svg height="9" version="1.1" id="Layer_1" xmlns="http://www.w3.org/2000/svg" xmlns:xlink="http://www.w3.org/1999/xlink" x="0px" y="0px"
	 viewBox="0 0 27 15.4" style="enable-background:new 0 0 27 15.4;" xml:space="preserve">
<style type="text/css">
	.st0{fill:#6A6A6A;}
	.st1{fill-rule:evenodd;clip-rule:evenodd;fill:#6A6A6A;}
</style>
<g>
	<path class="st1" d="M26.8,8.2c-3.6,4.5-8.3,7.2-13.3,7.2c-5.1,0-9.7-2.7-13.3-7.2c-0.2-0.3-0.2-0.7,0-1c7.7-9.6,19-9.6,26.7,0
		C27.1,7.5,27.1,7.9,26.8,8.2L26.8,8.2z M13.5,1.9c3.2,0,5.8,2.6,5.8,5.8c0,3.2-2.6,5.8-5.8,5.8c-3.2,0-5.8-2.6-5.8-5.8
		C7.7,4.5,10.3,1.9,13.5,1.9L13.5,1.9z"/>
	<path class="st1" d="M13.5,3.7c0.3,0,0.6,0,0.9,0.1c-0.4,0.3-0.7,0.8-0.7,1.3c0,0.9,0.7,1.7,1.7,1.7c0.7,0,1.4-0.5,1.6-1.2
		c0.4,0.6,0.6,1.3,0.6,2.1c0,2.2-1.8,4-4,4s-4-1.8-4-4S11.3,3.7,13.5,3.7L13.5,3.7z"/>
</g>
</svg>
